<svg width="95" height="133" viewBox="0 0 95 133" fill="none" xmlns="http://www.w3.org/2000/svg">
<path d="M52.6732 58.7965L52.2124 59.6525C55.8995 61.7067 61.2107 66.2147 63.4054 68.2119C63.6688 74.9014 63.164 80.7876 62.8787 82.8946C59.2443 91.849 51.0053 97.0724 47.3401 98.5648C40.1765 95.8785 33.8645 86.9987 31.604 82.8946C31.1299 74.0981 31.4064 69.3531 31.604 68.0802C34.659 64.9725 40.1634 61.1668 42.5337 59.6525L42.0069 58.7965C37.319 61.3249 25.7441 68.9361 20.5426 72.4257C21.438 102.818 25.6782 112.194 29.4312 120.424C16.8554 100.474 16.197 84.8698 15.1436 70.7139C19.0941 67.5535 34.4351 60.7498 41.546 57.7431L40.9535 56.3604C32.2624 58.1513 16.1312 64.1736 9.15198 66.9609C10.4161 99.8817 21.3985 118.317 31.999 133C23.4396 122.926 17.053 116.54 9.3495 101.725C5.04272 91.9257 2.96287 79.2074 0 63.3396C10.3766 59.3364 30.7041 56.097 39.5708 54.9777L39.1757 53.9243C27.1136 52.7654 14.134 54.4071 9.15198 55.3728C7.96683 41.0193 9.3495 33.9084 16.2629 24.1639C11.891 33.7504 12.8172 45.5404 13.8267 50.2371C19.6735 49.7631 33.1622 50.7858 39.1757 51.3564L39.5708 50.5005C32.5652 45.5492 25.8538 43.2579 23.3738 42.7312C21.0035 20.2134 24.7564 15.3411 33.0525 0.0658416C25.9942 16.2365 27.2145 33.1403 28.7069 39.5708L41.3485 48.4594L42.0069 47.1426L38.9782 43.5213C40.0843 41.0983 43.1262 39.2196 44.5089 38.5832C41.1378 42.9024 43.3237 44.7723 44.8381 45.1673H50.0396C53.5687 43.7978 51.7295 40.2073 50.3688 38.5832C53.2131 39.6893 55.3727 42.3361 56.097 43.5213L52.0807 47.6693L53.0683 49.052L66.1708 39.505C69.5418 22.7022 64.3272 6.65 61.101 0C74.5985 18.8965 72.4257 33.5134 71.1747 42.7312C66.8028 43.5213 57.9845 48.3277 54.1218 50.6322L54.9777 51.7515C60.1923 50.3293 74.3571 50.0616 80.7876 50.1054C83.3159 40.8876 80.0414 28.9703 78.2856 24.1639C86.2393 32.8023 86.6036 48.4375 85.594 55.1752C76.7449 53.3317 61.3643 53.5731 54.7802 53.9243L54.2534 54.9777C71.9648 56.8213 85.0673 60.2451 94.6802 63.3396C90.598 88.096 87.3717 98.499 82.4995 107.519C71.8595 124.111 64.5906 130.893 62.5495 133C75.0857 117.883 79.5112 102.12 81.1168 95.997C84.2245 84.1455 85.3965 71.7015 85.594 66.9609C76.4816 62.9577 60.6401 58.2259 53.8584 56.3604L53.2 57.7431C62.3651 61.2195 74.7521 67.9266 79.8 70.8455C78.8519 83.4345 76.9029 92.8586 76.047 95.997C73.5714 107.058 67.6412 116.891 64.9856 120.424C69.6209 111.47 71.877 99.8817 72.4257 95.2069C73.6372 85.8311 74.0279 76.1129 74.0718 72.4257C68.1723 68.0539 57.348 61.518 52.6732 58.7965Z" fill="white"/>
</svg>
